<?xml version="1.0" encoding="UTF-8"?>
<svg id="a" xmlns="http://www.w3.org/2000/svg" viewBox="0 0 256 256">
    <path d="M102.816,23h50.629c6.355,0,11.507,5.132,11.507,11.462v50.432c0,6.33-5.152,11.462-11.507,11.462h-50.629c-6.355,0-11.507-5.132-11.507-11.462V34.462c0-6.33,5.152-11.462,11.507-11.462Z" fill="#3d3d3d" />
    <path d="M24.341,23h50.629c6.355,0,11.507,5.132,11.507,11.462v50.432c0,6.33-5.152,11.462-11.507,11.462H24.341c-6.355,0-11.507-5.132-11.507-11.462V34.462c0-6.33,5.152-11.462,11.507-11.462Z" fill="#fff" />
    <path d="M181.865,23h50.629c6.355,0,11.507,5.132,11.507,11.462v50.432c0,6.33-5.152,11.462-11.507,11.462h-50.629c-6.355,0-11.507-5.132-11.507-11.462V34.462c0-6.33,5.152-11.462,11.507-11.462Z" fill="#fff" />
    <g>
        <path d="M49.656,170.646c-18.277,0-33.146-14.805-33.146-33.003s14.87-33.003,33.146-33.003,33.146,14.805,33.146,33.003-14.869,33.003-33.146,33.003Z" fill="#fff" />
        <path d="M49.656,108.315c16.25,0,29.471,13.156,29.471,29.328s-13.221,29.328-29.471,29.328-29.471-13.156-29.471-29.328,13.221-29.328,29.471-29.328m0-7.35c-20.336,0-36.821,16.421-36.821,36.678s16.485,36.678,36.821,36.678,36.821-16.421,36.821-36.678-16.485-36.678-36.821-36.678h0Z" fill="#3d3d3d" />
    </g>
    <g>
        <g>
            <path d="M128.13,170.646c-18.277,0-33.146-14.805-33.146-33.003s14.869-33.003,33.146-33.003,33.146,14.805,33.146,33.003-14.869,33.003-33.146,33.003Z" fill="#fff" />
            <path d="M128.13,108.315c16.25,0,29.471,13.156,29.471,29.328s-13.221,29.328-29.471,29.328-29.471-13.156-29.471-29.328,13.221-29.328,29.471-29.328m0-7.35c-20.336,0-36.821,16.421-36.821,36.678s16.485,36.678,36.821,36.678,36.821-16.421,36.821-36.678-16.485-36.678-36.821-36.678h0Z" fill="#3d3d3d" />
        </g>
        <ellipse cx="128.13" cy="137.643" rx="19.737" ry="19.66" fill="#3d3d3d" />
    </g>
    <g>
        <path d="M207.179,170.646c-18.276,0-33.146-14.805-33.146-33.003s14.869-33.003,33.146-33.003,33.146,14.805,33.146,33.003-14.869,33.003-33.146,33.003Z" fill="#fff" />
        <path d="M207.179,108.315c16.25,0,29.471,13.156,29.471,29.328s-13.221,29.328-29.471,29.328-29.471-13.156-29.471-29.328,13.221-29.328,29.471-29.328m0-7.35c-20.336,0-36.821,16.421-36.821,36.678s16.485,36.678,36.821,36.678,36.821-16.421,36.821-36.678-16.485-36.678-36.821-36.678h0Z" fill="#3d3d3d" />
    </g>
    <path d="M54.718,78.475c-.921,1.834-2.762,2.751-5.063,2.751s-4.142-1.375-5.523-3.209l-17.03-29.801c-1.381-3.209-.46-6.877,2.301-8.252,2.762-1.834,6.904-.459,8.285,2.292l12.427,22.007,28.935-40.507c-1.27-.481-2.641-.756-4.081-.756H24.341c-6.355,0-11.507,5.132-11.507,11.462v50.432c0,6.33,5.152,11.462,11.507,11.462h50.629c6.355,0,11.507-5.132,11.507-11.462V34.462c0-.04-.006-.079-.006-.12l-31.752,44.133Z" fill="#3d3d3d" />
    <path d="M212.242,78.475c-.921,1.834-2.762,2.751-5.063,2.751s-4.142-1.375-5.523-3.209l-17.03-29.801c-1.381-3.209-.46-6.877,2.301-8.252,2.762-1.834,6.904-.459,8.285,2.292l12.427,22.007,28.935-40.507c-1.27-.481-2.641-.756-4.081-.756h-50.629c-6.355,0-11.507,5.132-11.507,11.462v50.432c0,6.33,5.152,11.462,11.507,11.462h50.629c6.355,0,11.507-5.132,11.507-11.462V34.462c0-.04-.006-.079-.006-.12l-31.752,44.133Z" fill="#3d3d3d" />
    <rect x="12" y="180.35" width="232" height="52.65" rx="5.444" ry="5.444" fill="#3d3d3d" />
    <rect x="171.055" y="186.291" width="2.915" height="40.767" fill="#fff" />
    <g>
        <path d="M38.141,219.603c-4.535,0-6.641-2.185-6.641-6.859v-10.488c0-4.674,2.106-6.859,6.641-6.859h6.749c.675,0,.972,.369,.972,1.21v4.069c0,.84-.297,1.21-.972,1.21h-5.615c-1.134,0-1.647,.538-1.647,1.681v8.035c0,1.143,.405,1.647,1.242,1.647h2.618v-5.244c0-.84,.297-1.211,.972-1.211h4.184c.675,0,.972,.37,.972,1.211v10.389c0,.84-.297,1.21-.972,1.21h-8.503Z" fill="#fff" />
        <path d="M51.886,219.603c-.675,0-.972-.369-.972-1.21v-21.787c0-.84,.297-1.21,.972-1.21h9.097c4.535,0,6.641,2.185,6.641,6.859v10.488c0,4.674-2.106,6.859-6.641,6.859h-9.097Zm5.156-6.355h3.213c.864,0,1.269-.504,1.269-1.647v-8.169c0-1.109-.405-1.614-1.269-1.614h-3.213v11.43Z" fill="#fff" />
        <path d="M72.029,219.603c-.675,0-.972-.369-.972-1.21v-21.787c0-.84,.297-1.21,.972-1.21h12.039c.675,0,.972,.369,.972,1.21v4.001c0,.84-.297,1.211-.972,1.211h-6.884v3.496h4.697c.675,0,.972,.369,.972,1.21v4.034c0,.841-.297,1.211-.972,1.211h-4.697v6.623c0,.84-.297,1.21-.971,1.21h-4.184Z" fill="#fff" />
        <path d="M95.843,220.107c-6.749,0-8.395-2.757-8.395-6.859v-11.464c0-4.102,1.646-6.892,8.395-6.892s8.368,2.79,8.368,6.892v11.464c0,4.102-1.62,6.859-8.368,6.859Zm0-6.489c1.971,0,2.268-.673,2.268-1.58v-9.044c0-.874-.297-1.547-2.268-1.547-1.943,0-2.268,.673-2.268,1.547v9.044c0,.907,.324,1.58,2.268,1.58Z" fill="#fff" />
        <path d="M108.617,219.603c-.675,0-.972-.369-.972-1.21v-21.787c0-.84,.297-1.21,.972-1.21h8.989c4.049,0,5.318,2.286,5.318,5.615v1.547c0,1.883-.378,3.228-1.511,3.832,1.97,.269,3.266,2.05,3.266,4.875v7.128c0,.84-.297,1.21-.971,1.21h-4.185c-.675,0-.971-.369-.971-1.21v-5.145c0-1.008-.27-1.445-1.026-1.445h-3.78v6.59c0,.84-.297,1.21-.971,1.21h-4.157Zm5.129-13.852h2.025c.945,0,1.188-.672,1.188-1.579v-1.144c0-.907-.243-1.58-1.188-1.58h-2.025v4.303Z" fill="#fff" />
        <path d="M128.679,219.603c-.675,0-.972-.369-.972-1.21v-21.787c0-.84,.297-1.21,.972-1.21h4.346c.567,0,.919,.269,1.242,1.009l2.429,5.48c.189,.404,.27,.571,.486,.571h.243c.215,0,.297-.168,.485-.571l2.403-5.48c.324-.74,.675-1.009,1.241-1.009h4.373c.676,0,.972,.369,.972,1.21v21.787c0,.84-.297,1.21-.972,1.21h-4.157c-.702,0-.972-.369-.972-1.21v-11.834l-1.592,3.664c-.324,.773-.729,1.076-1.431,1.076h-1.08c-.701,0-1.107-.302-1.431-1.076l-1.592-3.664v11.834c0,.84-.297,1.21-.972,1.21h-4.022Z" fill="#fff" />
        <path d="M151.117,219.603c-.675,0-.971-.369-.971-1.21v-3.934c0-.84,.297-1.211,.971-1.211h7.261c.459,0,.702-.436,.702-.974,0-.773-.243-1.076-.702-1.144l-4.049-.705c-2.537-.471-4.184-1.816-4.184-5.581v-3.53c0-3.832,2.078-5.917,5.588-5.917h7.558c.676,0,.972,.369,.972,1.21v4.001c0,.84-.297,1.211-.972,1.211h-6.289c-.459,0-.729,.403-.729,1.009s.27,1.008,.729,1.076l4.022,.672c2.537,.471,4.211,1.816,4.211,5.581v3.53c0,3.832-2.105,5.917-5.588,5.917h-8.531Z" fill="#fff" />
    </g>
</svg>